<svg width="19" height="21" viewBox="0 0 19 21" fill="none" xmlns="http://www.w3.org/2000/svg">
<path d="M0.99442 10.9445C1.01629 12.9953 1.61997 14.9977 2.73525 16.7188C3.85053 18.4399 5.43156 19.809 7.29442 20.6667L8.9472 18.0028C7.83379 17.63 6.81925 17.0098 5.97967 16.189C5.1401 15.3681 4.49727 14.3678 4.09942 13.263C3.70156 12.1583 3.55899 10.9778 3.68241 9.81015C3.80583 8.64247 4.19202 7.51788 4.81204 6.52073C5.43205 5.52358 6.26979 4.67975 7.26242 4.05253C8.25505 3.4253 9.37681 3.03097 10.5436 2.89909C11.7103 2.76722 12.8918 2.90123 13.9994 3.29107C15.107 3.68091 16.1119 4.31647 16.9389 5.15007L18.6111 2.46674C17.0192 1.177 15.0937 0.366129 13.0588 0.128585C11.0238 -0.108959 8.96327 0.236604 7.11716 1.12502C5.27106 2.01343 3.71539 3.40812 2.63139 5.14661C1.54739 6.8851 0.979689 8.89581 0.99442 10.9445Z" fill="white"/>
</svg>
