<svg width="70" height="70" viewBox="0 0 70 70" fill="none" xmlns="http://www.w3.org/2000/svg">
<path d="M62.2222 15.5556H48.0278L45.9667 10.2667C45.6847 9.53587 45.1885 8.90721 44.5432 8.46311C43.8978 8.01901 43.1334 7.78015 42.35 7.77784H27.65C26.8633 7.77623 26.0946 8.01325 25.4455 8.45761C24.7963 8.90197 24.2971 9.53278 24.0139 10.2667L21.9722 15.5556H7.7778C6.74641 15.5556 5.75725 15.9653 5.02794 16.6946C4.29864 17.424 3.88892 18.4131 3.88892 19.4445V58.3334C3.88892 59.3648 4.29864 60.3539 5.02794 61.0833C5.75725 61.8126 6.74641 62.2223 7.7778 62.2223H62.2222C63.2536 62.2223 64.2428 61.8126 64.9721 61.0833C65.7014 60.3539 66.1111 59.3648 66.1111 58.3334V19.4445C66.1111 18.4131 65.7014 17.424 64.9721 16.6946C64.2428 15.9653 63.2536 15.5556 62.2222 15.5556ZM62.2222 58.3334H7.7778V19.4445H24.6361L27.65 11.6667H42.35L45.3639 19.4445H62.2222V58.3334Z" fill="white"/>
<path d="M17.5 36.9443C17.5 40.4055 18.5264 43.789 20.4493 46.6668C22.3722 49.5447 25.1053 51.7877 28.303 53.1122C31.5007 54.4368 35.0194 54.7833 38.4141 54.1081C41.8087 53.4328 44.9269 51.7661 47.3744 49.3187C49.8218 46.8713 51.4885 43.7531 52.1637 40.3584C52.839 36.9637 52.4924 33.4451 51.1679 30.2474C49.8434 27.0497 47.6003 24.3165 44.7225 22.3936C41.8446 20.4707 38.4612 19.4443 35 19.4443C30.3587 19.4443 25.9075 21.2881 22.6256 24.57C19.3437 27.8519 17.5 32.303 17.5 36.9443ZM49.3889 36.9443C49.3889 39.7902 48.545 42.5721 46.9639 44.9384C45.3829 47.3046 43.1356 49.1489 40.5064 50.2379C37.8772 51.327 34.984 51.6119 32.1929 51.0567C29.4017 50.5015 26.8378 49.1311 24.8255 47.1188C22.8132 45.1065 21.4428 42.5426 20.8876 39.7515C20.3324 36.9603 20.6173 34.0672 21.7064 31.4379C22.7955 28.8087 24.6397 26.5615 27.006 24.9804C29.3722 23.3993 32.1541 22.5554 35 22.5554C38.8146 22.5606 42.4715 24.0782 45.1688 26.7755C47.8661 29.4729 49.3837 33.1297 49.3889 36.9443Z" fill="white"/>
<path d="M18.2194 24.9472C18.2194 24.5346 18.0555 24.1389 17.7638 23.8472C17.4721 23.5555 17.0764 23.3916 16.6639 23.3916H11.9972C11.5846 23.3916 11.189 23.5555 10.8973 23.8472C10.6055 24.1389 10.4417 24.5346 10.4417 24.9472C10.4417 25.3597 10.6055 25.7554 10.8973 26.0471C11.189 26.3388 11.5846 26.5027 11.9972 26.5027H16.6639C17.0764 26.5027 17.4721 26.3388 17.7638 26.0471C18.0555 25.7554 18.2194 25.3597 18.2194 24.9472Z" fill="white"/>
<path d="M23.9944 36.9445C24.0163 38.9953 24.62 40.9977 25.7353 42.7188C26.8505 44.4399 28.4316 45.809 30.2944 46.6667L31.9472 44.0028C30.8338 43.63 29.8192 43.0098 28.9797 42.189C28.1401 41.3681 27.4973 40.3678 27.0994 39.263C26.7016 38.1583 26.559 36.9778 26.6824 35.8102C26.8058 34.6425 27.192 33.5179 27.812 32.5207C28.4321 31.5236 29.2698 30.6797 30.2624 30.0525C31.255 29.4253 32.3768 29.031 33.5436 28.8991C34.7103 28.7672 35.8918 28.9012 36.9994 29.2911C38.107 29.6809 39.1119 30.3165 39.9389 31.1501L41.6111 28.4667C40.0192 27.177 38.0937 26.3661 36.0588 26.1286C34.0238 25.891 31.9633 26.2366 30.1172 27.125C28.2711 28.0134 26.7154 29.4081 25.6314 31.1466C24.5474 32.8851 23.9797 34.8958 23.9944 36.9445Z" fill="white"/>
</svg>
