<svg width="70" height="70" viewBox="0 0 70 70" fill="none" xmlns="http://www.w3.org/2000/svg">
<path d="M32.8125 4.375H37.1875V15.225H32.8125V4.375Z" fill="white"/>
<path d="M47.4404 19.447L55.112 11.7754L58.2051 14.8707L50.5336 22.5423L47.4404 19.447Z" fill="white"/>
<path d="M54.7749 32.8125H65.6249V37.1875H54.7749V32.8125Z" fill="white"/>
<path d="M47.4534 50.538L50.5465 47.4448L58.2181 55.1186L55.1249 58.2095L47.4534 50.538Z" fill="white"/>
<path d="M32.8125 54.7749H37.1875V65.6249H32.8125V54.7749Z" fill="white"/>
<path d="M11.8059 55.1293L19.4775 47.4578L22.5706 50.5509L14.899 58.2246L11.8059 55.1293Z" fill="white"/>
<path d="M4.375 32.8125H15.225V37.1875H4.375V32.8125Z" fill="white"/>
<path d="M11.7905 14.8815L14.888 11.7905L22.5596 19.4643L19.4665 22.5574L11.7905 14.8815Z" fill="white"/>
<path d="M35 26.25C36.7306 26.25 38.4223 26.7632 39.8612 27.7246C41.3002 28.6861 42.4217 30.0527 43.084 31.6515C43.7462 33.2504 43.9195 35.0097 43.5819 36.707C43.2443 38.4044 42.4109 39.9635 41.1872 41.1872C39.9635 42.4109 38.4044 43.2442 36.707 43.5819C35.0097 43.9195 33.2504 43.7462 31.6515 43.0839C30.0527 42.4217 28.6861 41.3002 27.7246 39.8612C26.7632 38.4223 26.25 36.7306 26.25 35C26.25 32.6794 27.1719 30.4538 28.8128 28.8128C30.4538 27.1719 32.6794 26.25 35 26.25ZM35 21.875C32.4041 21.875 29.8665 22.6448 27.7081 24.087C25.5498 25.5292 23.8675 27.579 22.8741 29.9773C21.8807 32.3756 21.6208 35.0146 22.1272 37.5606C22.6336 40.1066 23.8837 42.4452 25.7192 44.2808C27.5548 46.1163 29.8934 47.3664 32.4394 47.8728C34.9854 48.3792 37.6244 48.1193 40.0227 47.1259C42.421 46.1325 44.4708 44.4503 45.913 42.2919C47.3552 40.1335 48.125 37.5959 48.125 35C48.125 31.519 46.7422 28.1806 44.2808 25.7192C41.8194 23.2578 38.481 21.875 35 21.875Z" fill="white"/>
</svg>
