<svg width="60" height="60" viewBox="0 0 60 60" fill="none" xmlns="http://www.w3.org/2000/svg">
<path d="M23.7524 52.4874L29.9999 41.6666H9.78742C12.8485 46.9607 17.8616 50.8451 23.7524 52.4874ZM7.40158 35.8333H19.8966L9.78742 18.3303C7.73607 21.8768 6.65938 25.9029 6.66658 29.9999C6.66658 32.0124 6.92325 33.9666 7.40158 35.8333ZM13.652 13.3516L19.8937 24.1666L29.9999 6.66659C23.8836 6.65861 18.0103 9.06032 13.652 13.3516ZM36.2474 7.51242L29.9999 18.3333H50.2124C47.1513 13.0391 42.1382 9.15469 36.2474 7.51242ZM52.5982 24.1666H40.1032L50.2095 41.6695C52.2619 38.1233 53.3396 34.0972 53.3332 29.9999C53.3332 27.9874 53.0766 26.0333 52.5982 24.1666ZM46.3478 46.6483L40.1062 35.8333L29.9999 53.3333C36.1163 53.3412 41.9895 50.9395 46.3478 46.6483ZM29.9999 59.1666C13.8912 59.1666 0.833252 46.1087 0.833252 29.9999C0.833252 13.8912 13.8912 0.833252 29.9999 0.833252C46.1087 0.833252 59.1666 13.8912 59.1666 29.9999C59.1666 46.1087 46.1087 59.1666 29.9999 59.1666ZM33.3687 24.1666H26.6312L23.2653 29.9999L26.6312 35.8333H33.3687L36.7345 29.9999L33.3687 24.1666Z" fill="white"/>
</svg>
