<svg width="66" height="66" viewBox="0 0 66 66" fill="none" xmlns="http://www.w3.org/2000/svg">
<path d="M33.0001 21.3334C26.5542 21.3334 21.3334 26.5543 21.3334 33.0001C21.3334 39.4459 26.5542 44.6668 33.0001 44.6668C39.4459 44.6668 44.6667 39.4459 44.6667 33.0001C44.6667 26.5543 39.4459 21.3334 33.0001 21.3334ZM59.0751 30.0834C58.4144 24.1688 55.7622 18.6546 51.5539 14.4463C47.3456 10.238 41.8314 7.58574 35.9167 6.92508V0.916748H30.0834V6.92508C24.1688 7.58574 18.6546 10.238 14.4463 14.4463C10.238 18.6546 7.58574 24.1688 6.92508 30.0834H0.916748V35.9168H6.92508C7.58574 41.8314 10.238 47.3456 14.4463 51.5539C18.6546 55.7622 24.1688 58.4144 30.0834 59.0751V65.0834H35.9167V59.0751C41.8314 58.4144 47.3456 55.7622 51.5539 51.5539C55.7622 47.3456 58.4144 41.8314 59.0751 35.9168H65.0834V30.0834H59.0751ZM33.0001 53.4168C21.7126 53.4168 12.5834 44.2876 12.5834 33.0001C12.5834 21.7126 21.7126 12.5834 33.0001 12.5834C44.2876 12.5834 53.4167 21.7126 53.4167 33.0001C53.4167 44.2876 44.2876 53.4168 33.0001 53.4168Z" fill="white"/>
</svg>
