<svg width="36" height="36" viewBox="0 0 36 36" fill="none" xmlns="http://www.w3.org/2000/svg">
<path d="M32.9991 25.4608V29.977C33.0008 30.3962 32.9147 30.8112 32.7464 31.1954C32.5781 31.5795 32.3313 31.9243 32.0218 32.2078C31.7122 32.4912 31.3467 32.707 30.9488 32.8413C30.5508 32.9756 30.1292 33.0255 29.7108 32.9878C25.0692 32.4844 20.6106 30.9015 16.6934 28.3662C13.0488 26.0549 9.95889 22.9711 7.64301 19.3338C5.09379 15.4065 3.50736 10.9351 3.01224 6.28192C2.97455 5.86563 3.02412 5.44607 3.1578 5.04994C3.29149 4.65381 3.50635 4.28981 3.78871 3.9811C4.07108 3.67239 4.41475 3.42574 4.79786 3.25685C5.18097 3.08796 5.59512 3.00054 6.01394 3.00015H10.5391C11.2712 2.99296 11.9808 3.25167 12.5359 3.72806C13.0909 4.20445 13.4534 4.86601 13.5559 5.58944C13.7469 7.03473 14.1011 8.45381 14.6118 9.81962C14.8147 10.3584 14.8586 10.944 14.7383 11.507C14.618 12.07 14.3386 12.5867 13.933 12.996L12.0173 14.9079C14.1646 18.6767 17.2914 21.7973 21.0677 23.9403L22.9833 22.0284C23.3935 21.6237 23.9112 21.3448 24.4753 21.2247C25.0394 21.1046 25.6262 21.1485 26.1661 21.351C27.5346 21.8607 28.9565 22.2142 30.4046 22.4048C31.1374 22.508 31.8065 22.8763 32.2849 23.4398C32.7633 24.0032 33.0174 24.7225 32.9991 25.4608Z" stroke="white" stroke-width="4.16667" stroke-linecap="round" stroke-linejoin="round"/>
</svg>
